<?xml version="1.0" standalone="no"?>
<!DOCTYPE svg PUBLIC "-//W3C//DTD SVG 20010904//EN"
 "http://www.w3.org/TR/2001/REC-SVG-20010904/DTD/svg10.dtd">
<svg version="1.0" xmlns="http://www.w3.org/2000/svg"
 width="499.182482pt" height="392.517115pt" viewBox="0 0 499.182482 392.517115"
 preserveAspectRatio="xMidYMid meet">
<metadata>
Created by potrace 1.12, written by Peter Selinger 2001-2015
</metadata>
<g transform="translate(-0.500000,392.670344) scale(0.100000,-0.100000)"
fill="#0C538B" stroke="none">
<path d="M237 3919 c-94 -22 -179 -96 -213 -185 -18 -47 -19 -94 -19 -1354 l0
-1305 26 -56 c31 -66 84 -120 148 -151 l46 -23 819 -3 819 -2 -6 -63 c-4 -34
-9 -133 -13 -219 l-7 -158 543 0 543 0 -6 61 c-5 55 -9 64 -54 112 -108 115
-209 290 -254 442 l-22 75 -1144 0 c-770 0 -1151 3 -1164 10 -19 11 -19 35
-19 1278 0 973 3 1271 12 1280 17 17 4199 17 4216 0 9 -9 12 -183 12 -723 l0
-711 51 -54 c68 -72 129 -152 168 -220 l31 -55 -2 910 -3 910 -30 54 c-32 58
-87 108 -150 137 -39 18 -119 19 -2165 21 -1218 0 -2141 -3 -2163 -8z"/>
<path d="M1344 3340 c-135 -28 -228 -114 -274 -251 -29 -86 -25 -236 9 -321
30 -76 106 -159 179 -195 52 -26 67 -28 167 -28 101 0 115 2 169 29 113 55
186 161 205 298 29 206 -70 393 -239 453 -55 20 -161 27 -216 15z m151 -210
c54 -26 86 -82 92 -164 7 -79 -10 -139 -51 -184 -31 -33 -39 -36 -97 -40 -55
-3 -69 0 -98 20 -59 39 -76 80 -76 178 0 107 21 153 85 187 53 28 91 29 145 3z"/>
<path d="M799 3321 c-24 -19 -24 -20 -29 -298 l-5 -278 -24 -3 c-29 -4 -41 12
-41 56 0 19 -8 40 -21 53 -19 19 -29 21 -82 15 -79 -8 -97 -25 -97 -90 0 -74
17 -122 56 -166 49 -54 105 -73 197 -69 97 5 159 41 196 114 26 49 26 50 29
350 3 297 3 300 -19 317 -31 26 -129 25 -160 -1z"/>
<path d="M1888 3320 l-28 -21 0 -353 c0 -308 2 -354 16 -375 16 -23 17 -23
223 -19 l206 3 55 31 c77 44 113 103 118 196 5 75 -14 142 -47 173 -19 16 -19
18 1 62 47 107 1 233 -106 288 -58 29 -63 30 -235 33 -168 4 -177 3 -203 -18z
m347 -225 l0 -30 -82 -3 -83 -3 0 36 0 36 83 -3 82 -3 0 -30z m23 -257 c17
-14 15 -53 -4 -72 -12 -12 -36 -16 -100 -16 l-84 0 0 48 c0 27 3 52 7 56 11
10 165 -4 181 -16z"/>
<path d="M2608 3317 c-52 -44 -63 -107 -28 -165 39 -64 15 -62 817 -62 690 0
730 1 769 19 33 15 45 28 59 64 21 56 9 103 -36 142 l-31 25 -761 0 -762 0
-27 -23z"/>
<path d="M2633 2785 c-63 -27 -91 -112 -58 -175 32 -62 0 -60 829 -60 l754 0
31 26 c17 14 36 42 42 63 10 32 8 45 -9 83 -36 82 9 78 -824 78 -607 -1 -739
-3 -765 -15z"/>
<path d="M3581 2380 c-224 -32 -468 -159 -616 -323 -116 -128 -197 -277 -243
-446 -22 -83 -25 -116 -26 -251 0 -171 18 -267 75 -402 138 -324 441 -563 783
-618 121 -20 331 -8 441 24 85 25 215 83 278 123 l29 18 201 -206 c177 -182
207 -208 247 -219 111 -30 211 28 241 140 17 65 -1 120 -59 184 -25 28 -117
123 -204 212 l-159 160 35 58 c49 81 92 189 118 293 30 123 30 330 1 458 -106
456 -500 783 -962 800 -64 2 -145 0 -180 -5z m302 -316 c357 -81 602 -428 557
-790 -31 -246 -188 -468 -405 -570 -276 -131 -585 -84 -804 122 -118 111 -194
243 -222 388 -15 76 -13 233 5 309 59 255 276 476 529 538 93 23 246 24 340 3z"/>
<path d="M575 2225 c-22 -8 -41 -15 -42 -15 -1 0 -11 -15 -22 -34 -26 -42 -27
-92 -1 -134 40 -65 -19 -62 1159 -62 l1069 0 46 64 c25 36 73 93 106 128 33
34 60 64 60 65 0 1 -525 2 -1167 2 -994 0 -1174 -2 -1208 -14z"/>
<path d="M563 1641 c-70 -32 -94 -112 -53 -179 40 -65 -10 -62 1067 -62 l979
0 12 98 c7 53 15 112 19 130 l5 32 -993 0 c-955 0 -996 -1 -1036 -19z"/>
<path d="M1603 263 c-12 -2 -34 -18 -48 -34 -21 -26 -25 -40 -25 -98 0 -58 4
-72 24 -94 13 -14 35 -29 48 -32 12 -3 371 -4 795 -3 l773 3 25 26 c34 34 44
117 22 172 -30 70 3 67 -839 66 -414 -1 -763 -4 -775 -6z"/>
</g>
</svg>
